<?xml version="1.0" standalone="no"?><!DOCTYPE svg PUBLIC "-//W3C//DTD SVG 1.1//EN" "http://www.w3.org/Graphics/SVG/1.1/DTD/svg11.dtd"><svg class="icon" width="200px" height="174.30px" viewBox="0 0 1175 1024" version="1.1" xmlns="http://www.w3.org/2000/svg"><path d="M636.657119 348.522325c-11.214827-4.313395-22.429655-6.901432-34.507161-8.62679-8.62679-0.862679-16.390901 6.038753-16.390902 14.665543 0 7.764111 6.038753 13.802864 13.802865 14.665544 9.489469 0.862679 18.116259 3.450716 26.74305 6.038753 31.056445 11.214827 55.211457 36.232519 66.426284 66.426285 2.588037 6.901432 10.352148 11.214827 18.11626 9.489469 8.62679-1.725358 13.802864-11.214827 10.352148-19.841618-14.665543-37.095198-45.721988-68.151643-84.542544-82.817186z" fill="#D53124" /><path d="M479.649537 671.16428c-67.288964-37.957877-109.560236-110.422915-109.560236-188.064027 0-119.049705 96.620051-215.669756 215.669755-215.669756s215.669756 96.620051 215.669756 215.669756c0 77.641112-42.271272 149.243471-109.560236 188.064027l-14.665543-25.880371c57.799495-32.781803 94.032013-94.894693 94.032013-161.320977 0-102.658804-83.679865-185.47599-185.47599-185.47599-102.658804 0-185.47599 83.679865-185.475989 185.47599 0 66.426285 36.232519 128.539174 94.032013 161.320977l-14.665543 25.880371z" fill="#2C2F35" /><path d="M479.649537 640.970514h212.219039v30.193766h-212.219039zM647.871946 755.706824H523.646167c-6.901432 0-12.940185-6.038753-12.940186-12.940185v-4.313396c0-6.901432 6.038753-12.940185 12.940186-12.940185h124.225779c6.901432 0 12.940185 6.038753 12.940185 12.940185v4.313396c0 7.764111-5.176074 12.940185-12.940185 12.940185zM621.991575 835.073294h-72.465038c-6.901432 0-12.940185-6.038753-12.940185-12.940185v-4.313395c0-6.901432 6.038753-12.940185 12.940185-12.940186h72.465038c6.901432 0 12.940185 6.038753 12.940186 12.940186v4.313395c0 6.901432-5.176074 12.940185-12.940186 12.940185z" fill="#2C2F35" /><path d="M873.89385 403.733783l-45.721988-5.176074c-6.901432-0.862679-12.077506-6.901432-11.214827-14.665544l0.862679-4.313395c0.862679-6.901432 6.901432-12.077506 14.665543-11.214827l45.721988 5.176074c6.901432 0.862679 12.077506 6.901432 11.214827 14.665543l-0.862679 4.313395c-0.862679 6.901432-7.764111 12.077506-14.665543 11.214828zM836.798652 345.071609l63.838248-34.507161c6.038753-3.450716 8.62679-11.214827 5.176074-17.25358l-1.725358-3.450716c-3.450716-6.038753-11.214827-8.62679-17.253581-5.176074l-63.838247 34.50716c-6.038753 3.450716-8.62679 11.214827-5.176074 17.253581l1.725358 3.450716c3.450716 6.038753 11.214827 8.62679 17.25358 5.176074z" fill="#D53124" /><path d="M334.719461 345.071609l-63.838248-34.507161c-6.038753-3.450716-8.62679-11.214827-5.176074-17.25358l1.725358-3.450716c3.450716-6.038753 11.214827-8.62679 17.253581-5.176074l63.838247 34.50716c6.038753 3.450716 8.62679 11.214827 5.176074 17.253581l-1.725358 3.450716c-2.588037 6.038753-10.352148 8.62679-17.25358 5.176074zM298.486942 403.733783l45.721988-5.176074c6.901432-0.862679 12.077506-6.901432 11.214827-14.665544l-0.862679-4.313395c-0.862679-6.901432-6.901432-12.077506-14.665543-11.214827l-45.721988 5.176074c-6.901432 0.862679-12.077506 6.901432-11.214828 14.665543l0.862679 4.313395c0.862679 6.901432 6.901432 12.077506 14.665544 11.214828z" fill="#D53124" /></svg>