<?xml version="1.0" standalone="no"?><!DOCTYPE svg PUBLIC "-//W3C//DTD SVG 1.1//EN" "http://www.w3.org/Graphics/SVG/1.1/DTD/svg11.dtd"><svg class="icon" width="200px" height="200.00px" viewBox="0 0 1024 1024" version="1.1" xmlns="http://www.w3.org/2000/svg"><path d="M763.259259 744.296296C903.585185 465.540741 711.111111 219.022222 475.97037 219.022222v68.266667c129.896296 0 243.674074 94.814815 263.585186 226.607407 21.807407 145.066667-78.696296 280.651852-223.762963 302.45926-13.274074 1.896296-26.548148 2.844444-38.874074 2.844444v68.266667c91.022222 0 188.681481-36.977778 274.962962-127.051852 3.792593-4.740741 8.533333-10.42963 11.377778-16.118519z" fill="#C92334" /><path d="M475.97037 820.148148c-187.733333 0-342.281481-199.111111-225.659259-422.874074 72.059259-78.696296 151.703704-109.037037 225.659259-109.037037v-68.266667c-16.118519 0-33.185185 0.948148-49.303703 3.792593-182.992593 27.496296-309.096296 197.214815-281.6 380.207407 25.6 164.977778 167.822222 284.444444 330.903703 284.444445v-68.266667z" fill="#F12A3F" /><path d="M475.97037 356.503704c141.274074 0 256 150.755556 164.977778 317.629629-54.992593 55.940741-111.881481 76.8-164.977778 76.8v68.266667c13.274074 0 25.6-0.948148 38.874074-2.844444 146.014815-20.859259 246.518519-156.444444 224.711112-301.511112-19.911111-131.792593-133.688889-226.607407-263.585186-226.607407v68.266667z" fill="#E1EDF7" /><path d="M251.259259 397.274074c-117.57037 223.762963 36.977778 422.874074 225.65926 422.874074v-68.266667c-140.325926 0-256-149.807407-164.977778-317.629629 51.2-54.992593 110.933333-77.748148 164.977778-77.748148v-68.266667c-74.903704 0-153.6 30.340741-225.65926 109.037037z" fill="#FEFEFF" /><path d="M475.97037 667.496296c-80.592593 0-146.962963-86.281481-93.866666-182.992592 32.237037-31.288889 64.474074-43.614815 93.866666-43.614815v-84.385185c-54.992593 0-113.777778 22.755556-164.977777 77.748148-91.022222 166.874074 24.651852 317.62963 164.977777 317.629629v-84.385185z" fill="#F12A3F" /><path d="M641.896296 674.133333c91.022222-167.822222-24.651852-318.577778-164.977777-317.629629v84.385185c81.540741 0 148.859259 88.177778 92.918518 185.837037-32.237037 29.392593-63.525926 40.77037-92.918518 40.77037v84.385185c53.096296-0.948148 109.985185-21.807407 164.977777-77.748148z" fill="#C92334" /><path d="M475.97037 495.881481c41.718519 0 76.8 45.511111 46.45926 96.711112-17.066667 14.222222-32.237037 19.911111-46.45926 19.911111v54.992592c29.392593 0 60.681481-11.377778 92.918519-40.77037 55.940741-97.659259-11.377778-185.837037-92.918519-185.837037v54.992592zM382.103704 484.503704c-53.096296 96.711111 13.274074 182.992593 93.866666 182.992592v-54.992592c-28.444444 0-53.096296-20.859259-56.888889-49.303704-4.740741-31.288889 17.066667-60.681481 48.355556-65.422222 2.844444 0 5.688889-0.948148 8.533333-0.948148v-54.992593c-30.340741-0.948148-61.62963 10.42963-93.866666 42.666667z" fill="#FEFEFF" /><path d="M419.081481 562.251852c4.740741 28.444444 29.392593 49.303704 56.888889 49.303704V495.881481c-36.02963 0-62.577778 32.237037-56.888889 66.370371z" fill="#F12A3F" /><path d="M523.377778 592.592593c29.392593-50.251852-4.740741-96.711111-46.459259-96.711112v115.674075c14.222222 0 29.392593-4.740741 46.459259-18.962963z" fill="#C92334" /><path d="M772.740741 694.992593l-38.874074-27.496297-35.081482 12.325926 37.925926 25.6zM881.777778 743.348148l-70.162963-48.355555-61.62963 20.859259 68.266667 46.459259zM804.977778 854.281481L734.814815 805.925926l-2.844445-64.474074 68.266667 46.459259zM723.437037 770.844444l-38.874074-27.496296-1.896296-36.029629 37.925926 26.548148z" fill="#FDB813" /><path d="M847.644444 801.185185c4.740741-7.585185 2.844444-18.014815-4.74074-22.755555L498.725926 542.340741s-11.377778-8.533333-20.859259 4.74074c-8.533333 12.325926 2.844444 20.859259 2.844444 20.85926l343.22963 237.037037c8.533333 5.688889 18.014815 3.792593 23.703703-3.792593z" fill="#1E2D4F" /></svg>